<svg width="147" height="24" viewBox="0 0 147 24" fill="none" xmlns="http://www.w3.org/2000/svg">
<g clip-path="url(#clip0_89_21373)">
<path d="M72.9905 10.9394L54.5589 11.0333V19.0988L72.9905 17.0439M72.9905 10.9394V17.0439M72.9905 10.9394V3.99951H53.425M72.9905 17.0439V21.5291" stroke="black" stroke-width="4.98158" stroke-miterlimit="2.56141" stroke-linejoin="bevel"/>
<path d="M27.3709 3.9997L27.3808 1.50892L24.8801 1.49902V3.9997H27.3709ZM45.9578 4.07329L48.4486 4.0753L45.9677 1.58251L45.9578 4.07329ZM45.9513 12.0971L45.684 14.5735L48.4421 12.0991L45.9513 12.0971ZM36.3057 19.0257L34.5444 20.787L36.3057 21.5165V19.0257ZM43.467 4.07127L43.4605 12.0951L48.4421 12.0991L48.4486 4.0753L43.467 4.07127ZM29.8617 10.0913V3.9997H24.8801V10.0913H29.8617ZM27.3611 6.49047L45.9479 6.56406L45.9677 1.58251L27.3808 1.50892L27.3611 6.49047ZM24.8801 10.0913V21.4624H29.8617V10.0913H24.8801ZM46.2186 9.62069L27.6383 7.61493L27.1037 12.5677L45.684 14.5735L46.2186 9.62069ZM25.6097 11.8526L34.5444 20.787L38.0669 17.2644L29.1322 8.33005L25.6097 11.8526ZM36.3057 21.5165H45.2404V16.5349H36.3057V21.5165ZM45.2404 21.5165H48.6072V16.5349H45.2404V21.5165Z" fill="black"/>
<path d="M121.538 19.1144L119.55 20.6157L120.298 21.6052H121.538V19.1144ZM115.38 3.93611V1.44531L112.889 3.93611H115.38ZM108.425 13.4539H115.38V8.47226H108.425V13.4539ZM110.916 21.4615V10.9631H105.935V21.4615H110.916ZM110.916 10.9631V1.60261H105.935V10.9631H110.916ZM113.392 12.4644L119.55 20.6157L123.525 17.613L117.367 9.46166L113.392 12.4644ZM121.538 21.6052H127.854V16.6236H121.538V21.6052ZM117.871 10.9631V3.93611H112.889V10.9631H117.871ZM115.38 6.4269H126.41V1.44531H115.38V6.4269Z" fill="black"/>
<path d="M81.5004 14.0206L80.6157 19.0254H85.1184H100.357V13.1883L81.8785 10.054V4.11279H95.0244H99.4294L98.6459 8.90725" stroke="black" stroke-width="4.98158" stroke-miterlimit="2.56141" stroke-linejoin="bevel"/>
<path d="M0.450195 4.52861L3.48909 3.37598L6.60632 4.31004V22.0572H0.450195V4.52861Z" fill="#0000FF"/>
<path d="M4.42316 7.11217L0.450195 4.52857L3.48909 1.50781H22.1703V7.6314H11.7075L4.42316 7.11217Z" fill="#0000FF"/>
<path d="M3.87012 9.00854L8.38589 4.31006L22.3709 17.518L18.2761 22.0581L3.87012 9.00854Z" fill="#0000FF"/>
</g>
<defs>
<clipPath id="clip0_89_21373">
<rect width="128" height="21.9429" fill="white" transform="translate(0 1.02881)"/>
</clipPath>
</defs>
</svg>
